<svg width="128" height="128" viewBox="0 0 128 128" fill="none" xmlns="http://www.w3.org/2000/svg">
  <defs>
    <linearGradient id="ark-bg" x1="20" y1="16" x2="108" y2="112" gradientUnits="userSpaceOnUse">
      <stop stop-color="#FB923C"/>
      <stop offset="1" stop-color="#EA580C"/>
    </linearGradient>
    <linearGradient id="ark-flame" x1="54" y1="18" x2="78" y2="58" gradientUnits="userSpaceOnUse">
      <stop stop-color="#FFE082"/>
      <stop offset="1" stop-color="#FFF7ED"/>
    </linearGradient>
  </defs>
  <rect x="8" y="8" width="112" height="112" rx="28" fill="url(#ark-bg)"/>
  <path d="M77.3 21.5C82.1 34.1 77 43.2 69.5 49.1C72.7 40.4 69.1 31.6 61.6 25.8C61 38.5 54.4 46.8 48.2 54.6C42 62.5 37 70.8 37 81.3C37 98.4 50.8 110 64 110C80.5 110 92 97.3 92 82.2C92 60.4 80.8 45.4 77.3 21.5Z" fill="#7C2D12"/>
  <path d="M68.6 36.5C71.7 44.2 69 49.7 64.4 53.7C66.3 48.2 64.2 42.8 59.2 38.9C58.8 46.6 54.7 51.8 50.8 56.7C46.9 61.6 43.8 66.9 43.8 73.5C43.8 84.1 52.4 91.4 64 91.4C74.2 91.4 81.7 83.2 81.7 73.2C81.7 59.8 74.8 50.6 68.6 36.5Z" fill="url(#ark-flame)"/>
  <path d="M64 61C67.8 65.1 70.1 69.6 70.1 75.3C70.1 82.3 65.3 87.1 59.3 87.1C54.1 87.1 49.9 83.1 49.9 77.8C49.9 71.7 53.9 67.1 58.1 62.2C60.2 59.8 62.1 57.5 63.3 54.7C63.5 56.7 63.8 58.9 64 61Z" fill="#FDBA74"/>
</svg>
